<?xml version="1.0" encoding="UTF-8"?>
<svg id="Capa_2" data-name="Capa 2" xmlns="http://www.w3.org/2000/svg" viewBox="0 0 280.62 81.13">
  <defs>
    <style>
      .cls-1 {
        fill: #fff;
      }

      .cls-1, .cls-2 {
        stroke-width: 0px;
      }

      .cls-2 {
        fill: #ee1a27;
      }
    </style>
  </defs>
  <g id="Capa_2-2" data-name="Capa 2">
    <g>
      <rect class="cls-2" x="72.78" y="44.61" width="207.39" height="7.04"/>
      <rect class="cls-1" x="72.78" y="54.91" width="207.39" height="3.17"/>
      <g>
        <path class="cls-1" d="m100.51,7.59h-20.96v10h18.66c2.63,0,4.44.59,5.41,1.76.97,1.18,1.46,3.4,1.46,6.68v4.03c0,3.3-.48,5.54-1.43,6.71-.95,1.18-2.76,1.76-5.44,1.76h-17.28c-2.69,0-4.52-.59-5.49-1.78s-1.46-3.42-1.46-6.7v-.98l4.59-1.29v5.76h22.05v-10.78h-18.6c-2.69,0-4.51-.59-5.46-1.78s-1.43-3.42-1.43-6.7v-3.12c0-3.28.48-5.51,1.43-6.7s2.77-1.78,5.46-1.78h15.77c2.63,0,4.45.58,5.45,1.75,1,1.16,1.5,3.2,1.5,6.12v.75l-4.23,1.46v-5.19Z"/>
        <path class="cls-1" d="m120.04,38.54V2.71h4.96v35.83h-4.96Z"/>
        <path class="cls-1" d="m140.35,38.54V2.71h4.96v35.83h-4.96Z"/>
        <path class="cls-1" d="m185.73,7.59h-20.54v25.97h20.54v-8.98l4.96,1.25v4.24c0,3.3-.48,5.54-1.43,6.71-.95,1.18-2.77,1.76-5.46,1.76h-16.58c-2.69,0-4.52-.59-5.49-1.78-.97-1.19-1.46-3.42-1.46-6.7V11.18c0-3.28.49-5.51,1.46-6.7.97-1.19,2.8-1.78,5.49-1.78h16.58c2.69,0,4.51.59,5.46,1.76.95,1.18,1.43,3.41,1.43,6.71v3.39l-4.96,1.12V7.59Z"/>
        <path class="cls-1" d="m228.96,7.59h-20.96v10h18.66c2.63,0,4.44.59,5.41,1.76.97,1.18,1.46,3.4,1.46,6.68v4.03c0,3.3-.48,5.54-1.43,6.71-.95,1.18-2.76,1.76-5.43,1.76h-17.29c-2.69,0-4.52-.59-5.49-1.78s-1.46-3.42-1.46-6.7v-.98l4.59-1.29v5.76h22.05v-10.78h-18.6c-2.69,0-4.51-.59-5.46-1.78s-1.43-3.42-1.43-6.7v-3.12c0-3.28.48-5.51,1.43-6.7s2.77-1.78,5.46-1.78h15.77c2.63,0,4.45.58,5.45,1.75,1,1.16,1.5,3.2,1.5,6.12v.75l-4.23,1.46v-5.19Z"/>
        <path class="cls-1" d="m242.71,38.54l16.16-35.83h5.29l16.44,35.83h-5.43l-3.78-8.81h-20.03l-3.78,8.81h-4.87Zm10.73-13.39h15.94l-7.98-18.34-7.96,18.34Z"/>
      </g>
      <g>
        <path class="cls-1" d="m78.93,78.59v-14.01h11.29c1.05,0,1.81.21,2.27.64s.7,1.12.7,2.07v1.63c0,.75-.19,1.31-.56,1.68s-.96.6-1.77.7c.79.1,1.38.38,1.8.84.41.46.62,1.1.62,1.9v1.79c0,.93-.32,1.62-.96,2.07s-1.61.68-2.92.68h-10.45Zm11.86-9.5v-1.4c0-.46-.1-.78-.3-.95s-.58-.26-1.13-.26h-8.08v3.87h8.08c.54,0,.91-.09,1.12-.28s.31-.51.31-.97Zm.12,5.92v-1.17c0-.64-.11-1.08-.34-1.32-.23-.24-.63-.36-1.21-.36h-8.08v4.51h8.08c.59,0,1-.12,1.22-.36.22-.24.33-.67.33-1.3Z"/>
        <path class="cls-1" d="m124.13,78.59l7.65-14.01h2.5l7.78,14.01h-2.57l-1.79-3.45h-9.47l-1.79,3.45h-2.31Zm5.08-5.23h7.54l-3.78-7.17-3.76,7.17Z"/>
        <path class="cls-1" d="m176.1,78.59c-1.27,0-2.13-.23-2.58-.69-.45-.46-.68-1.33-.68-2.62v-2.8l2.31-.49v4.65h7.51v-12.06h2.33v10.69c0,1.28-.23,2.15-.68,2.62s-1.32.7-2.59.7h-5.62Z"/>
        <path class="cls-1" d="m219.21,78.59v-14.01h2.35v14.01h-2.35Z"/>
        <path class="cls-1" d="m255.77,67.9c0-1.27.23-2.14.68-2.61.45-.47,1.32-.7,2.6-.7h9.69c1.26,0,2.12.23,2.58.7s.68,1.34.68,2.62v7.38c0,1.29-.23,2.16-.68,2.62-.46.46-1.31.69-2.58.69h-9.69c-1.28,0-2.15-.23-2.6-.7-.46-.47-.68-1.34-.68-2.61v-7.38Zm2.33,8.75h11.59v-10.15h-11.59v10.15Z"/>
      </g>
      <g>
        <path class="cls-2" d="m39.39,81.13S-5.74,46.7,50.09,28.7h14.87v52.43h-25.57Z"/>
        <polygon class="cls-2" points="0 28.7 43.56 28.7 0 48.78 0 28.7"/>
        <polygon class="cls-2" points="0 24.52 0 0 64.96 0 64.96 24.52 25.76 24.52 25.76 8.02 21.78 8.02 21.78 24.52 19.63 24.52 19.63 12.26 14.93 12.26 14.93 24.52 13.37 24.52 13.37 16.37 9.65 16.37 9.65 24.52 0 24.52"/>
      </g>
    </g>
  </g>
</svg>