<?xml version="1.0" encoding="UTF-8"?>
<svg id="Capa_2" data-name="Capa 2" xmlns="http://www.w3.org/2000/svg" viewBox="0 0 302.61 99.08">
  <defs>
    <style>
      .cls-1, .cls-2 {
        stroke-width: 0px;
        fill: white;
      }

      .cls-3 {
        font-size: 69.43px;
      }

      .cls-3, .cls-4 {
        font-family: BankGothicBT-Light, 'BankGothic Lt BT';
        font-weight: 300;
        fill: white;
        color: white;
      }

      .cls-2 {
        fill: #ee1a27;
      }

      .cls-4 {
        font-size: 27.14px;
        letter-spacing: 1em;
      }
    </style>
  </defs>
  <g id="Capa_2-2" data-name="Capa 2">
    <g>
      <path class="cls-2" d="m39.39,95.22S-5.74,60.78,50.09,42.78h14.87v52.43h-25.57Z"/>
      <polygon class="cls-2" points="0 42.78 43.56 42.78 0 62.87 0 42.78"/>
      <polygon class="cls-2" points="0 38.61 0 14.09 64.96 14.09 64.96 38.61 25.76 38.61 25.76 22.11 21.78 22.11 21.78 38.61 19.63 38.61 19.63 26.35 14.93 26.35 14.93 38.61 13.37 38.61 13.37 30.46 9.65 30.46 9.65 38.61 0 38.61"/>
      <rect class="cls-2" x="72.78" y="58.7" width="207.39" height="7.04"/>
      <rect class="cls-1" x="72.78" y="69" width="207.39" height="3.17"/>
      <text class="cls-3" transform="translate(67.57 52.63) scale(.83 1)"><tspan x="0" y="0">SIICSA</tspan></text>
      <text class="cls-4" transform="translate(75.3 92.68)"><tspan x="0" y="0">BAJIO</tspan></text>
    </g>
  </g>
</svg>